<?xml version="1.0" encoding="UTF-8"?> <svg xmlns="http://www.w3.org/2000/svg" width="440" height="319" viewBox="0 0 440 319" fill="none"><path fill-rule="evenodd" clip-rule="evenodd" d="M240.894 75.0378C226.555 75.0378 214.674 82.7443 208.119 93.6958H142.16C113.482 93.6958 88.9013 78.2826 75.7914 55.1629L65.5493 37.7217C124.134 37.7217 182.309 37.7217 240.894 37.7217C268.752 37.7217 293.333 52.7292 306.443 75.0378C331.844 81.9331 356.834 88.4229 382.235 95.3182L335.531 175.223L265.885 201.182L240.894 244.177L197.058 168.734H153.222L240.894 318.809L293.333 228.764L363.389 202.399L440 71.7929L329.795 42.1834C305.624 15.8188 279.814 0.811219 242.942 0H0L44.2458 75.4434C65.5493 111.948 104.469 132.229 144.618 131.417H208.119C214.674 142.775 226.555 150.076 240.894 150.076C261.788 150.076 278.585 133.446 278.585 112.759C278.585 92.0734 261.788 75.0378 240.894 75.0378Z" fill="black"></path></svg>
